# xmcd
#
# Track frame offsets: 
#        150
#        20272
#        32140
#        50973
#        60987
#        69325
#        84612
#        93916
#        107680
#        118248
#        128719
#        138741
#        151176
#        158003
#        169684
#        181066
#        193951
#        204941
#        214456
#        220187
#        230449
#        238374
#        244480
#        257795
#        264092
#        275043
#        282365
#        289246
#        295774
#        303298
#
# Disc length: 4159 seconds
#
# Revision: 0
# Processed by: cddbd v1.5.2PL0 Copyright (c) Steve Scherf et al.
# Submitted via: ExactAudioCopy v1.3
#
DISCID=c8103d1e
DTITLE=Various Artist - Valentine Romance - (non-stop) Love Songs
DYEAR=1900
DGENRE=Blues
TTITLE0=Celine Dion - My Heart Will Go On (Titanic)
TTITLE1=Lauren Christie - The Color Of The Night
TTITLE2=Whitney Houston - I'll Always Love You
TTITLE3=Boyzone - Baby Can I Hold You Tonight
TTITLE4=M.I.T.R. - The Actor
TTITLE5=Bryan Adams - Please Forgive Me
TTITLE6=Bon Jovi - Always
TTITLE7=M.I.T.R. - That's Why (You Go Away)
TTITLE8=Wet Wet Wet - Love Is All Around
TTITLE9=Savage Garden - I Knew I Loved You
TTITLE10=Westlife - Seasons In The Sun
TTITLE11=Boyzone - No matter What
TTITLE12=Human Nature - Eternal Flame
TTITLE13=Boyzone - Everyday I Loved You
TTITLE14=Trademark - I'll Be The One
TTITLE15=Ronan Keating - When You Say Nothing At All
TTITLE16=Emilia - Big Big World
TTITLE17=The Tony Riah Project - Nobody Knows
TTITLE18=Venessa Williams - Save The Best For Last
TTITLE19=Sally Yeh - I Believe In You
TTITLE20=All 4 One - I Swear
TTITLE21=Diana Ross - When You Tell Me That You Love Me
TTITLE22=Atlantic Stars - Masterpiece
TTITLE23=Chris de Burgh - Lady In Red
TTITLE24=Bryan Adams - Everything I Do, I Do It For You
TTITLE25=Scorpions - Wind Of Change
TTITLE26=George Benson - Nothing's Gonna Change My Love For You
TTITLE27=George Michael - Careless Whisper
TTITLE28=Glenn Frey - The One You Love
TTITLE29=Trisha Yearwood - How Do I Live
EXTD=
EXTT0=
EXTT1=
EXTT2=
EXTT3=
EXTT4=
EXTT5=
EXTT6=
EXTT7=
EXTT8=
EXTT9=
EXTT10=
EXTT11=
EXTT12=
EXTT13=
EXTT14=
EXTT15=
EXTT16=
EXTT17=
EXTT18=
EXTT19=
EXTT20=
EXTT21=
EXTT22=
EXTT23=
EXTT24=
EXTT25=
EXTT26=
EXTT27=
EXTT28=
EXTT29=
PLAYORDER=
